<?xml version="1.0" encoding="UTF-8" standalone="no"?>
<!-- Created with Inkscape (http://www.inkscape.org/) -->

<svg
   xmlns:dc="http://purl.org/dc/elements/1.1/"
   xmlns:cc="http://creativecommons.org/ns#"
   xmlns:rdf="http://www.w3.org/1999/02/22-rdf-syntax-ns#"
   xmlns:svg="http://www.w3.org/2000/svg"
   xmlns="http://www.w3.org/2000/svg"
   xmlns:xlink="http://www.w3.org/1999/xlink"
   xmlns:sodipodi="http://sodipodi.sourceforge.net/DTD/sodipodi-0.dtd"
   xmlns:inkscape="http://www.inkscape.org/namespaces/inkscape"
   id="svg8827"
   version="1.1"
   inkscape:version="0.91 r13725"
   width="1947.3409"
   height="1313.8687"
   viewBox="0 0 1947.3409 1313.8687"
   sodipodi:docname="Sparring Club Simple Logo (Transparent).svg">
  <metadata
     id="metadata8833">
    <rdf:RDF>
      <cc:Work
         rdf:about="">
        <dc:format>image/svg+xml</dc:format>
        <dc:type
           rdf:resource="http://purl.org/dc/dcmitype/StillImage" />
      </cc:Work>
    </rdf:RDF>
  </metadata>
  <defs
     id="defs8831">
    <linearGradient
       id="linearGradient17604"
       inkscape:collect="always">
      <stop
         id="stop17606"
         offset="0"
         style="stop-color:#2906b7;stop-opacity:1;" />
      <stop
         id="stop17608"
         offset="1"
         style="stop-color:#000607;stop-opacity:1" />
    </linearGradient>
    <linearGradient
       gradientTransform="translate(-10.258244,0.94902311)"
       inkscape:collect="always"
       xlink:href="#linearGradient8004"
       id="linearGradient8010"
       x1="1663.3538"
       y1="446.69339"
       x2="971.9801"
       y2="1416.983"
       gradientUnits="userSpaceOnUse" />
    <linearGradient
       inkscape:collect="always"
       id="linearGradient8004">
      <stop
         style="stop-color:#b10000;stop-opacity:1;"
         offset="0"
         id="stop8006" />
      <stop
         style="stop-color:#000000;stop-opacity:0.79768789"
         offset="1"
         id="stop8008" />
    </linearGradient>
    <linearGradient
       gradientTransform="translate(-10.258244,0.94902311)"
       inkscape:collect="always"
       xlink:href="#linearGradient8044"
       id="linearGradient8050"
       x1="1659.0673"
       y1="1003.0923"
       x2="1584.959"
       y2="1113.0593"
       gradientUnits="userSpaceOnUse" />
    <linearGradient
       inkscape:collect="always"
       id="linearGradient8044">
      <stop
         style="stop-color:#b10000;stop-opacity:1;"
         offset="0"
         id="stop8046" />
      <stop
         style="stop-color:#090000;stop-opacity:0.97109824"
         offset="1"
         id="stop8048" />
    </linearGradient>
    <linearGradient
       gradientTransform="translate(-10.258244,0.94902311)"
       inkscape:collect="always"
       xlink:href="#linearGradient8004"
       id="linearGradient8042"
       x1="1635.1614"
       y1="881.17242"
       x2="1482.1638"
       y2="1206.2922"
       gradientUnits="userSpaceOnUse" />
    <linearGradient
       gradientTransform="translate(-10.258244,0.94902311)"
       inkscape:collect="always"
       xlink:href="#linearGradient8004"
       id="linearGradient8034"
       x1="1434.3521"
       y1="1110.6688"
       x2="1157.0439"
       y2="1239.7605"
       gradientUnits="userSpaceOnUse" />
    <linearGradient
       gradientTransform="translate(-10.258244,0.94902311)"
       inkscape:collect="always"
       xlink:href="#linearGradient8004"
       id="linearGradient8058"
       x1="1439.1333"
       y1="1117.8406"
       x2="1281.3545"
       y2="1153.6993"
       gradientUnits="userSpaceOnUse" />
    <linearGradient
       gradientTransform="translate(-10.258244,0.94902311)"
       inkscape:collect="always"
       xlink:href="#linearGradient8004"
       id="linearGradient8012"
       x1="1329.1663"
       y1="974.40533"
       x2="903.64178"
       y2="907.46887"
       gradientUnits="userSpaceOnUse" />
    <linearGradient
       gradientTransform="translate(-10.258244,0.94902311)"
       inkscape:collect="always"
       xlink:href="#linearGradient8004"
       id="linearGradient8026"
       x1="1630.3801"
       y1="792.72076"
       x2="848.65833"
       y2="1062.8571"
       gradientUnits="userSpaceOnUse" />
    <linearGradient
       gradientTransform="translate(-10.258244,0.94902311)"
       inkscape:collect="always"
       xlink:href="#linearGradient17604"
       id="linearGradient7930"
       x1="560.83185"
       y1="294.43723"
       x2="966.90887"
       y2="390.91019"
       gradientUnits="userSpaceOnUse" />
    <linearGradient
       gradientTransform="translate(-10.258244,0.94902311)"
       inkscape:collect="always"
       xlink:href="#linearGradient17604"
       id="linearGradient7956"
       x1="540.87823"
       y1="356.81213"
       x2="679.54083"
       y2="294.55737"
       gradientUnits="userSpaceOnUse" />
    <linearGradient
       gradientTransform="translate(-10.258244,0.94902311)"
       inkscape:collect="always"
       xlink:href="#linearGradient17604"
       id="linearGradient7938"
       x1="507.12003"
       y1="157.63496"
       x2="757.29926"
       y2="79.876564"
       gradientUnits="userSpaceOnUse" />
    <linearGradient
       gradientTransform="translate(-10.258244,0.94902311)"
       inkscape:collect="always"
       xlink:href="#linearGradient17604"
       id="linearGradient7964"
       x1="583.18805"
       y1="154.25417"
       x2="760.68005"
       y2="90.018959"
       gradientUnits="userSpaceOnUse" />
    <linearGradient
       gradientTransform="translate(-10.258244,0.94902311)"
       inkscape:collect="always"
       xlink:href="#linearGradient17604"
       id="linearGradient7954"
       x1="284.27722"
       y1="272.87219"
       x2="388.98251"
       y2="160.29497"
       gradientUnits="userSpaceOnUse" />
    <linearGradient
       gradientTransform="translate(-10.258244,0.94902311)"
       inkscape:collect="always"
       xlink:href="#linearGradient17604"
       id="linearGradient7946"
       x1="268.57956"
       y1="379.93039"
       x2="512.41443"
       y2="139.24812"
       gradientUnits="userSpaceOnUse" />
    <linearGradient
       gradientTransform="translate(-10.258244,0.94902311)"
       inkscape:collect="always"
       xlink:href="#linearGradient17604"
       id="linearGradient7922"
       x1="144.54188"
       y1="653.74551"
       x2="1252.7167"
       y2="653.74551"
       gradientUnits="userSpaceOnUse" />
  </defs>
  <sodipodi:namedview
     pagecolor="#ffffff"
     bordercolor="#666666"
     borderopacity="1"
     objecttolerance="10"
     gridtolerance="10"
     guidetolerance="10"
     inkscape:pageopacity="0"
     inkscape:pageshadow="2"
     inkscape:window-width="1536"
     inkscape:window-height="801"
     id="namedview8829"
     showgrid="false"
     inkscape:zoom="0.41830734"
     inkscape:cx="627.66572"
     inkscape:cy="767.09696"
     inkscape:window-x="-8"
     inkscape:window-y="-8"
     inkscape:window-maximized="1"
     inkscape:current-layer="svg8827" />
  <path
     style="fill:url(#linearGradient7930);fill-opacity:1"
     d="m 895.21336,382.29912 c -32.8681,-30.1781 -65.0961,-53.0389 -74.7715,-53.0389 -2.6503,0 -25.1351,-4.9795 -49.9662,-11.0655 -24.8311,-6.0861 -47.0492,-11.5291 -49.3735,-12.0957 -4.3458,-1.0594 -4.6107,-0.9893 18.1718,-4.8079 3.2584,-0.5462 5.4938,-1.9214 5.4938,-3.3799 0,-9.1179 58.5025,8.6632 93.8172,28.5145 6.508,3.6583 16.7772,10.682 22.8204,15.6081 15.8401,12.9122 54.0928,52.0965 54.0928,55.4103 0,1.5471 -0.1902,2.7883 -0.4226,2.7582 -0.2324,-0.03 -9.1704,-8.0865 -19.8622,-17.9032 z"
     id="path7836"
     inkscape:connector-curvature="0" />
  <path
     style="fill:url(#linearGradient7956);fill-opacity:1"
     d="m 557.53806,344.49372 c -1.9441,-3.1129 -1.0948,-3.8659 11.5058,-10.2013 16.6659,-8.3795 41.5454,-16.883 49.1932,-16.8136 4.8138,0.044 5.2031,0.3213 2.5854,1.8435 -2.8626,1.6647 -2.8849,2.0095 -0.3124,4.852 1.523,1.6829 2.1491,3.4192 1.3912,3.8584 -1.3858,0.8032 -60.5558,19.8219 -61.6687,19.8219 -0.3275,0 -1.5401,-1.5124 -2.6945,-3.3609 z"
     id="path7842"
     inkscape:connector-curvature="0" />
  <path
     style="fill:url(#linearGradient7946);fill-opacity:1"
     d="m 239.41296,391.89902 c -0.041,-1.3429 5.2784,-13.2858 11.8213,-26.5398 10.7298,-21.7353 17.822,-32.3867 38.9081,-58.4341 1.4452,-1.7853 4.8683,-3.4859 7.6068,-3.7789 5.6095,-0.6004 24.9242,-20.0409 48.0717,-48.3848 7.2675,-8.8989 17.1262,-19.6977 21.9083,-23.9973 18.7951,-16.8983 78.965,-53.1411 82.3778,-49.6194 0.757,0.7811 -0.4983,2.6683 -2.7896,4.1937 -38.9055,25.9002 -83.025,60.0166 -90.4964,69.9784 -2.7892,3.7188 -12.678,14.8546 -21.9752,24.7462 -9.2972,9.8917 -23.3698,25.9585 -31.2724,35.7041 -10.9669,13.5243 -15.1991,17.6004 -17.8771,17.2176 -2.6405,-0.3775 -5.8817,2.5968 -13.1006,12.0216 -5.2755,6.8878 -9.5919,12.974 -9.5919,13.5249 0,0.5509 -3.6133,5.9106 -8.0294,11.9105 -4.4162,5.9998 -9.7073,13.8316 -11.758,17.4039 -2.0507,3.5723 -3.7623,5.3963 -3.8034,4.0534 z"
     id="path7852"
     inkscape:connector-curvature="0" />
  <path
     style="fill:url(#linearGradient7954);fill-opacity:1"
     d="m 266.38456,296.11682 c 0,-1.9832 13.9597,-18.5688 27.9477,-33.2048 9.737,-10.1879 15.3473,-14.7945 18.0276,-14.8021 2.1403,-0.01 6.1735,-1.5225 8.9627,-3.3697 8.6041,-5.6983 8.3093,-3.8059 -1.1006,7.0638 -21.1408,24.4205 -33.6852,36.667 -36.9208,36.0438 -2.9302,-0.5643 -11.8835,4.8372 -13.2541,7.9961 -0.6659,1.5347 -3.6625,1.758 -3.6625,0.2729 z"
     id="path7862"
     inkscape:connector-curvature="0" />
  <path
     style="fill:url(#linearGradient7938);fill-opacity:1.0"
     d="m 509.04146,141.77492 c 0.8832,-0.8478 9.1215,-4.7353 18.3073,-8.6389 21.1409,-8.9841 26.9642,-12.4414 29.7627,-17.6705 2.7686,-5.1732 10.1893,-8.0597 36.8711,-14.3419 18.1974,-4.2847 21.6466,-5.6687 27.6557,-11.097496 9.6508,-8.719 14.6475,-10.3722 40.4067,-13.3694 32.9236,-3.8308 39.0815,-3.591 45.4527,1.7701 3.7524,3.1575 4.765,5.0007 3.5508,6.4638 -1.1449,1.3795 -1.1053,2.6401 0.1217,3.867 2.4787,2.4787 0.4878,2.937 -31.4828,7.247096 -14.8755,2.0054 -37.6441,5.9315 -50.5968,8.7247 -12.9526,2.7932 -25.5605,4.6764 -28.0174,4.185 -7.1955,-1.4391 -38.9533,6.3936 -42.1017,10.3839 -3.8756,4.9119 -18.2304,13.1532 -28.0393,16.0977 -4.6486,1.3955 -11.2801,3.7484 -14.7367,5.2287 -7.0819,3.0329 -9.5248,3.4256 -7.154,1.1502 z"
     id="path7864"
     inkscape:connector-curvature="0" />
  <path
     style="fill:url(#linearGradient7964);fill-opacity:1.0"
     d="m 590.94136,134.28212 c 0,-2.4799 15.9777,-9.894 27.8851,-12.9394 11.5133,-2.9447 45.3331,-5.0405 42.9546,-2.6619 -0.74,0.7399 -57.8473,14.3486 -66.1911,15.7734 -2.5567,0.4365 -4.6486,0.3591 -4.6486,-0.1721 z"
     id="path7878"
     inkscape:connector-curvature="0" />
  <path
     style="fill:url(#linearGradient7922);fill-opacity:1.0;stroke:none"
     d="m 492.89816,1204.1065 c -10.9823,-3.1318 -23.0394,-8.1701 -40.921,-17.1 -31.5647,-15.7632 -41.5783,-22.6539 -55.0792,-37.9022 -13.7355,-15.5133 -24.0774,-25.1859 -55.3946,-51.8095 -67.2496,-57.1709 -117.7956,-126.94474 -151.6638,-209.35733 -13.6337,-33.17528 -30.3886,-92.86062 -39.386,-140.30321 -3.4636,-18.26313 -4.7319,-31.38341 -5.5556,-57.4736 -0.8635,-27.34924 -0.033,-72.53974 1.1716,-63.76574 0.1631,1.188 2.9786,23.2477 6.2568,49.0216 8.7551,68.83669 16.5118,103.7815 31.2076,140.59335 8.6733,21.72608 20.7827,46.83128 21.5207,44.61703 0.3289,-0.98657 -4.6699,-16.54432 -11.1085,-34.57279 -17.5583,-49.16477 -25.3701,-79.49261 -32.1732,-124.90585 -10.5875,-70.67474 -11.6501,-147.70224 -2.5886,-187.63444 2.7747,-12.2273 3.4596,-13.5637 8.3117,-16.2173 1.8595,-1.0169 5.1254,-6.3417 7.2577,-11.8328 7.1261,-18.3516 7.2246,-18.1814 6.2032,10.7235 l -0.9705,27.469 3.9967,0 c 2.1982,0 5.4734,-1.1168 7.2781,-2.4818 4.9997,-3.7816 5.4105,-3.2347 4.0863,5.44 -2.4759,16.2193 -3.6297,36.7962 -1.967,35.0758 0.8987,-0.9297 4.8265,-16.1433 8.7285,-33.808 8.3805,-37.9386 19.3806,-72.4975 27.9582,-87.8358 5.7859,-10.3461 9.2817,-14.7146 9.2625,-11.5749 -0.01,0.7521 -4.2385,15.0598 -9.4087,31.7947 -12.0934,39.1444 -14.9263,51.2394 -12.6453,53.9879 1.1866,1.4297 1.2273,6.1479 0.1263,14.6308 -2.0637,15.8989 -2.1526,26.9711 -0.1889,23.5081 0.7909,-1.3945 3.473,-12.4244 5.9604,-24.5108 6.8504,-33.2871 7.4719,-35.2669 10.327,-32.8974 1.9296,1.6015 2.6358,1.3712 3.5037,-1.1428 3.3366,-9.6647 10.1031,-23.6191 12.0307,-24.8109 1.2254,-0.7577 9.1507,-15.2106 17.6117,-32.1176 16.184,-32.3395 28.8453,-53.5241 36.0154,-60.26 6.2743,-5.8944 5.2538,-1.45 -2.627,11.4407 -9.7031,15.8717 -37.5579,73.0809 -42.8052,87.9152 -3.2493,9.1856 -3.9381,13.175 -2.6804,15.5251 0.931,1.7394 1.6927,5.0695 1.6927,7.4 0,10.2135 3.6826,3.9973 15.1769,-25.618 15.2042,-39.1742 24.4418,-57.8365 51.8077,-104.6646 11.8284,-20.2404 22.3784,-39.7552 23.4446,-43.3662 4.0017,-13.5528 34.0579,-49.38 58.2184,-69.3968 15.7333,-13.0349 37.545,-28.3675 38.7049,-27.2077 1.4215,1.4216 -6.4271,8.9737 -23.3837,22.5002 -8.8324,7.0457 -20.8759,16.6496 -26.7634,21.3421 -10.6828,8.5145 -29.0198,29.4594 -29.0198,33.1469 0,3.3035 8.6667,-3.2371 34.3584,-25.9298 43.1415,-38.1055 73.9222,-59.9038 109.1553,-77.3016 30.1884,-14.9068 45.4402,-19.3178 99.0587,-28.6487 38.2209,-6.6514 53.5063,-10.0936 52.4452,-11.8105 -0.4568,-0.7391 -4.4567,-2.2845 -8.8887,-3.4343 l -8.0581,-2.0904 7.1842,-3.1194 c 7.4127,-3.2185 8.4502,-4.6965 5.4222,-7.7246 -2.6263,-2.6262 0.8719,-4.835 15.3132,-9.6692 20.4568,-6.8478 33.4788,-8.4019 61.582,-7.3493 29.2029,1.0937 57.5581,5.8309 76.5958,12.7966 7.1967,2.6332 26.4594,10.9967 42.8059,18.5854 23.81,11.0537 30.7362,13.5947 34.8266,12.7766 5.9181,-1.1836 9.2835,0.3721 38.5669,17.8282 22.98834,13.7034 41.20384,22.8177 42.67084,21.3507 2.6334,-2.6335 -40.49014,-36.5979 -68.33974,-53.8251 -19.1573,-11.8501 -31.5834,-18.1138 -52.4106,-26.4186 -9.1206,-3.6368 -22.6683,-9.5361 -30.1061,-13.1095 -17.1498,-8.2394 -13.629,-9.0005 15.4626,-3.3424 16.6188,3.2323 46.3835,7.7969 50.8413,7.7969 0.2568,0 0.4669,-1.0201 0.4669,-2.2669 0,-3.0147 -13.0812,-9.9835 -28.7368,-15.3091 l -12.678,-4.3128 15.5976,-0.043 c 18.2598,-0.051 22.3441,1.266 65.2844,21.0439 34.97884,16.111 50.11814,24.3868 77.17044,42.1848 29.9096,19.6779 53.2347,38.7363 78.6182,64.2371 20.8133,20.9095 57.9156,63.4536 73.0735,83.791 33.2452,44.6056 83.9651,157.7586 97.078,216.5752 3.4761,15.5917 3.9135,21.9682 3.9284,57.2697 0.019,44.0469 -0.6698,49.7619 -6.8451,56.8286 -4.9338,5.6461 -19.3394,33.5361 -19.3394,37.4421 0,1.4551 -0.4504,2.1951 -1.001,1.6445 -0.5505,-0.5505 0.7403,-12.2777 2.8685,-26.0603 3.1069,-20.1211 3.8622,-31.8882 3.8326,-59.7125 -0.033,-31.0327 -0.5146,-36.9492 -4.609,-56.6284 -5.0565,-24.304 -9.3565,-40.4745 -10.4673,-39.3637 -0.3983,0.3983 0.3924,11.7001 1.7571,25.1151 2.7346,26.8826 3.2471,51.9446 1.1303,55.2798 -0.7963,1.2548 -4.414,-16.0129 -8.6767,-41.4148 -9.1517,-54.5364 -13.8885,-73.6542 -26.8407,-108.3314 -10.2075,-27.3284 -16.5444,-40.8855 -19.1111,-40.8855 -0.732,0 -1.9504,2.391 -2.7076,5.3133 -1.3362,5.1564 -1.7833,4.5855 -15.1453,-19.3376 -24.2358,-43.3912 -54.3669,-88.8584 -55.8793,-84.321 -0.4007,1.2019 3.7233,9.5211 9.1643,18.4872 5.4411,8.9661 11.451,20.5231 13.3555,25.6823 1.9045,5.1591 9.9392,21.1878 17.8549,35.6193 22.2355,40.5385 33.6157,69.4162 26.2403,66.586 -4.0563,-1.5565 -3.5835,0.4389 5.5213,23.299 15.4103,38.6922 22.2649,69.848 22.0457,100.2028 l -0.098,13.5676 -4.9451,-23.6656 c -7.5205,-35.9907 -15.6397,-60.0093 -20.2855,-60.0093 -0.9308,0 -2.5573,1.8984 -3.6144,4.2186 -1.5552,3.4132 -1.0848,7.689 2.4638,22.3978 6.0002,24.87 6.2727,27.0552 5.1075,40.9538 -1.0188,12.1527 -1.0269,12.1689 -3.325,6.7035 -1.267,-3.0134 -2.6752,-5.1072 -3.1294,-4.6531 -0.4542,0.4542 -1.6037,5.3236 -2.5546,10.8208 -2.8022,16.2001 -3.1449,17.1593 -6.4398,18.0209 -2.1676,0.5669 -3.4971,3.0099 -4.2707,7.8479 -3.0159,18.8606 -4.6945,24.063 -7.1158,22.0535 -1.8766,-1.5574 -2.6978,-1.039 -4.0694,2.5687 -0.9452,2.4858 -1.7301,5.8014 -1.7443,7.3679 -0.014,1.5665 -0.6643,3.8551 -1.4446,5.0858 -0.8694,1.3712 -2.2104,-4.847 -3.4632,-16.0588 -3.8231,-34.214 -13.5789,-74.4782 -17.8867,-73.8222 -0.9298,0.1416 -2.7854,3.5646 -4.1237,7.6068 l -2.4332,7.3494 -2.1705,-10.9876 c -6.3146,-31.9673 -13.2997,-54.7052 -25.4452,-82.8297 -23.3301,-54.0241 -67.3004,-129.83 -72.3673,-124.7631 -0.4446,0.4446 2.2621,6.4482 6.0147,13.3415 23.496,43.1598 38.8628,82.2059 51.4155,130.6431 4.0789,15.7395 8.4297,44.8424 6.9282,46.3439 -0.3783,0.3783 -2.2514,-2.3769 -4.1624,-6.1229 -4.4976,-8.8159 -7.8177,-11.0742 -6.3878,-4.3447 7.9875,37.5904 9.7185,47.9065 9.2871,55.3491 l -0.5058,8.7264 -3.1684,-9.2972 c -1.7426,-5.1135 -5.4557,-15.308 -8.2512,-22.6544 -5.0395,-13.2434 -5.1072,-13.3247 -7.9544,-9.5503 -2.8133,3.7298 -3.033,3.2984 -10.8405,-21.296 -21.0513,-66.313 -32.4505,-93.8132 -54.5492,-131.5982 -6.525,-11.1566 -15.519,-27.1309 -19.9867,-35.4984 -11.6015,-21.728 -20.26594,-33.9054 -33.20754,-46.6713 -18.1745,-17.9276 -57.3391,-45.9631 -60.2052,-43.0971 -1.2613,1.2614 -0.8526,1.6594 11.3739,11.0759 13.5698,10.4512 48.5368,42.2295 53.039,48.2025 10.6685,14.1534 43.45954,80.0935 56.78814,114.196 14.2343,36.4198 25.659,81.9744 27.7602,110.6901 l 0.8659,11.8328 -4.0002,-12.678 c -2.2001,-6.9729 -8.3078,-27.1134 -13.5726,-44.7566 -12.1832,-40.8276 -22.6554,-69.9234 -32.8685,-91.3207 -8.1596,-17.0952 -23.84744,-40.3575 -24.96184,-37.0142 -0.333,0.9991 2.7761,10.4967 6.90914,21.1058 7.6816,19.718 15.0934,45.4164 17.0203,59.0136 0.945,6.6685 0.7759,7.2941 -1.3712,5.0712 -1.3471,-1.3945 -5.9897,-10.903 -10.3168,-21.13 -15.49404,-36.6192 -28.70974,-56.8912 -54.83834,-84.1186 -31.5921,-32.9205 -59.5513,-48.8574 -107.9318,-61.5215 -21.0766,-5.5171 -25.9206,-6.1612 -51.9794,-6.9117 -30.6627,-0.8831 -40.9334,0.1509 -73.5324,7.4031 -43.4863,9.6742 -74.6169,20.9548 -113.2568,41.0403 -7.9026,4.1079 -19.6932,10.1016 -26.2012,13.3194 -11.6262,5.7482 -33.4423,21.6452 -47.9126,34.9129 -12.7935,11.7301 -59.4278,70.3999 -59.4278,74.7649 0,0.5406 -5.1346,7.8359 -11.4102,16.212 -12.2303,16.3237 -14.4552,16.4368 -9.822,0.4991 4.4303,-15.2397 9.3975,-25.6601 10.9975,-23.0711 1.9668,3.1823 4.2184,1.3231 9.2075,-7.6034 22.924,-41.0155 107.0631,-118.3295 148.921,-136.8411 11.6045,-5.1321 11.7171,-5.1312 8.3127,0.065 -3.8668,5.9015 -0.8801,5.5781 13.9009,-1.5055 16.2854,-7.8046 49.5466,-19.9868 79.6239,-29.163 13.7273,-4.188 25.7194,-8.3994 26.6491,-9.3588 2.2001,-2.2704 -41.2862,-0.4149 -69.9637,2.9852 -11.5182,1.3656 -21.3466,2.0784 -21.841,1.584 -1.844,-1.844 7.0594,-9.1511 21.7345,-17.8377 8.3262,-4.9285 14.8536,-9.2458 14.5055,-9.594 -0.3482,-0.3482 -18.7029,3.9908 -40.7881,9.6422 -22.0853,5.6513 -40.6238,9.8065 -41.1967,9.2335 -1.5239,-1.5239 9.4332,-10.0684 19.4435,-15.1622 4.7706,-2.4276 13.2495,-5.0606 18.842,-5.8511 5.5924,-0.7904 11.8693,-2.3477 13.9487,-3.4605 l 3.7806,-2.0234 -4.8735,-3.916 c -5.7699,-4.6363 -7.6609,-3.7224 23.8634,-11.5334 26.8481,-6.6523 32.9628,-8.7291 32.9628,-11.1955 0,-2.281 -1.7842,-2.1989 -17.4753,0.8036 -15.0578,2.8814 -34.9271,3.3716 -34.9271,0.8618 0,-0.9205 4.7542,-3.8349 10.565,-6.4765 16.025,-7.2849 19.9202,-14.6184 6.7306,-12.6714 -18.1161,2.6742 -57.1743,11.5085 -70.4414,15.9326 -14.8944,4.9669 -46.9949,22.0226 -54.8328,29.134 -2.2104,2.0055 -6.0962,8.2105 -8.635,13.7889 -3.6251,7.9651 -7.6612,12.8562 -18.8014,22.7844 -34.8767,31.0821 -48.7945,44.7051 -51.5025,50.4118 -1.6013,3.3746 -10.4044,17.1918 -19.5624,30.7049 -9.1579,13.5131 -16.6513,25.2329 -16.6519,26.044 0,2.7728 4.9905,-2.6679 17.0858,-18.6199 6.6526,-8.7737 17.4545,-21.6906 24.0044,-28.7042 16.0896,-17.2285 45.8055,-42.8966 49.6613,-42.8966 1.7188,0 6.0232,-1.9694 9.5653,-4.3763 3.5422,-2.407 6.8242,-3.9924 7.2934,-3.5232 0.4692,0.4692 -3.8364,7.8273 -9.568,16.3515 -5.7316,8.5241 -9.9449,15.9745 -9.3629,16.5566 0.582,0.582 6.1597,-0.2492 12.3948,-1.847 6.2351,-1.5979 12.2873,-2.8989 13.4495,-2.891 4.6173,0.031 1.5825,5.0532 -9.2952,15.3824 -17.0296,16.171 -56.3833,59.1326 -72.635,79.2942 -13.0798,16.2265 -29.1646,39.4303 -50.3865,72.6872 -4.4496,6.9729 -8.4154,11.7271 -8.8131,10.565 -1.5474,-4.5225 -4.2712,-1.6171 -9.8949,10.5548 -10.1994,22.0752 -18.54,51.4254 -23.541,82.8398 -1.5153,9.5188 1.2279,6.0843 7.4261,-9.2972 l 5.1088,-12.678 0.088,8.8746 c 0.048,4.881 0.8481,8.8746 1.7779,8.8746 0.9297,0 1.6942,-0.5705 1.6988,-1.2678 0.01,-0.6973 1.8221,-3.5347 4.0388,-6.3052 l 4.0304,-5.0374 -0.865,32.929 c -0.7577,28.8447 0.4312,55.0485 3.9481,87.02178 l 0.9298,8.452 -4.7775,-7.17203 c -2.6276,-3.94462 -5.4605,-7.17755 -6.2954,-7.18415 -2.2147,-0.018 -0.068,27.43709 3.298,42.18194 5.0675,22.19779 28.2241,73.27469 49.986,110.255 6.3932,10.86399 11.624,20.50976 11.624,21.43501 0,0.92528 -1.5935,1.92539 -3.5411,2.22247 -3.3655,0.51338 -3.1979,1.18687 3.3808,13.58112 7.5377,14.2011 8.1723,16.54105 4.486,16.54105 -9.4077,0 1.8068,19.56681 24.1014,42.05133 l 17.4396,17.58812 -6.6591,-0.89317 c -14.697,-1.97128 -36.2127,-20.20595 -65.8051,-55.77007 -10.6453,-12.79356 -20.0019,-23.26101 -20.7925,-23.26101 -0.7905,0 -1.6712,3.11805 -1.9571,6.929 l -0.5198,6.929 -4.7376,-3.7409 c -2.6057,-2.05751 -5.1392,-3.33942 -5.6299,-2.84868 -3.2239,3.22391 27.2947,58.53942 39.8917,72.30446 l 6.8478,7.48273 -1.0752,-10.9876 -1.0752,-10.9876 6.4125,8.452 c 25.8974,34.13415 37.8371,44.32447 70.0871,59.81808 29.9583,14.3926 34.4027,14.9618 27.8916,3.5719 -3.6283,-6.347 -3.0399,-7.4834 2.113,-4.0811 10.5871,6.9902 25.3001,15.4322 30.6539,17.5886 5.1853,2.0885 5.9381,2.0064 8.0466,-0.8772 2.2279,-3.0468 3.0462,-2.8272 19.359,5.1948 15.2266,7.4879 18.7714,10.1686 33.4294,25.2801 21.5284,22.1946 24.5062,27.1453 24.295,40.392 -0.2352,14.7528 -4.8773,33.8019 -11.5775,47.5088 -3.1812,6.508 -12.8106,22.8352 -21.3985,36.2825 l -15.6145,24.4497 -10.1424,3.1319 c -25.3014,7.8129 -51.1943,9.9482 -66.7708,5.5065 z M 354.77176,404.90562 c 22.9909,-30.8683 23.0494,-30.9588 18.4369,-28.4902 -8.5743,4.5888 -43.7479,54.2688 -38.4225,54.2688 0.4321,0 9.4257,-11.6003 19.9856,-25.7786 z m 209.1232,-208.433 c 29.2875,-6.4555 45.6408,-11.0799 45.6408,-12.9063 0,-0.9017 -2.0919,-1.2395 -4.6486,-0.7505 -2.5567,0.489 -8.0717,1.3817 -12.2554,1.9838 -12.1801,1.753 -41.0357,8.7661 -48.7219,11.8415 -7.435,2.9749 -9.7503,6.5353 -3.2579,5.0099 2.0919,-0.4915 12.5512,-2.8218 23.243,-5.1784 z"
     id="path7882"
     inkscape:connector-curvature="0" />
  <path
     style="fill:url(#linearGradient8012);fill-opacity:1"
     d="m 1178.3554,990.16195 c -14.1304,-2.74175 -27.7642,-7.79343 -64.7984,-24.00938 -10.0947,-4.42012 -29.4762,-18.79382 -41.6323,-30.87534 -6.5435,-6.50334 -14.8969,-14.36302 -18.563,-17.46595 -7.1661,-6.06518 -27.9875,-31.62779 -27.9875,-34.36046 0,-0.91085 3.4231,1.14885 7.6068,4.57711 4.1838,3.42826 7.6068,6.72923 7.6068,7.3355 0,2.16692 17.9996,19.94269 32.1176,31.71818 15.8201,13.19518 44.6653,32.69787 48.3614,32.69787 1.2929,0 2.3506,-1.11715 2.3506,-2.48255 0,-2.78774 4.1912,-1.85792 8.6002,1.90796 1.4761,1.26079 9.0829,3.72919 16.904,5.48533 7.8211,1.75614 19.1646,4.78289 25.2078,6.72611 6.0432,1.94322 12.7095,3.54295 14.814,3.55494 2.1044,0.012 5.1472,0.78733 6.7616,1.72297 1.6144,0.93564 11.3027,3.15775 21.5296,4.93802 l 18.5944,3.23687 -19.7065,-0.0628 c -21.102,-0.0672 -24.8638,0.75294 -21.5834,4.70564 1.6415,1.97781 1.006,2.34897 -3.7213,2.17352 -3.1354,-0.11637 -8.7435,-0.80197 -12.4624,-1.52355 z"
     id="path7970"
     inkscape:connector-curvature="0" />
  <path
     style="fill:url(#linearGradient8026);fill-opacity:1"
     d="m 1315.2383,973.23865 c -0.4303,-0.69615 1.1141,-1.7417 3.432,-2.32346 4.9349,-1.23857 5.4124,-3.50005 1.2561,-5.94959 -4.345,-2.56085 -0.7423,-4.41265 16.4814,-8.47149 16.1274,-3.80047 46.213,-14.18875 51.9204,-17.92761 2.0591,-1.34894 4.7215,-2.43981 5.9164,-2.42415 1.1948,0.0157 -0.2998,1.61173 -3.3214,3.5468 -5.6519,3.61963 -7.1034,7.37969 -3.3808,8.75834 1.1622,0.4304 -1.8494,2.65683 -6.6923,4.94762 -4.843,2.29079 -9.7874,4.90646 -10.9876,5.8126 -2.1391,1.61492 -4.4423,2.41028 -26.6931,9.21772 -13.7558,4.20849 -26.9045,6.47433 -27.9311,4.81322 z"
     id="path7972"
     inkscape:connector-curvature="0" />
  <path
     style="fill:url(#linearGradient8058);fill-opacity:1"
     d="m 1266.2562,1171.1353 c 2.7892,-0.7314 10.7763,-2.2743 17.7492,-3.4286 10.2487,-1.6967 40.8852,-8.4067 65.9256,-14.4391 3.3623,-0.81 2.9397,-0.1921 -2.0681,3.0231 -3.4617,2.2226 -7.6455,5.2301 -9.2972,6.6832 -5.9803,5.2614 -32.1983,9.8076 -55.6147,9.6436 -14.0174,-0.098 -19.9607,-0.6259 -16.6948,-1.4822 z"
     id="path7974"
     inkscape:connector-curvature="0" />
  <path
     style="fill:url(#linearGradient8034);fill-opacity:1"
     d="m 1234.1386,1213.0515 c -7.0456,-3.9089 -9.3956,-6.8538 -7.3938,-9.2658 1.4046,-1.6925 1.3498,-2.9315 -0.213,-4.8146 -1.7401,-2.0967 -1.5565,-2.5677 1.0608,-2.7209 6.9835,-0.4089 14.1337,-1.319 31.902,-4.0607 10.227,-1.578 22.3978,-3.1412 27.0464,-3.4737 4.6486,-0.3324 16.539,-2.4747 26.423,-4.7605 11.1379,-2.5757 20.5266,-3.8132 24.6925,-3.2544 6.3075,0.846 25.2606,-2.5016 34.8888,-6.1622 2.3666,-0.8998 8.9331,-5.0051 14.5922,-9.1229 7.0477,-5.1283 13.9912,-8.4472 22.0398,-10.5347 6.4628,-1.6762 11.7505,-3.573 11.7505,-4.2151 0,-1.732 6.6261,-3.1486 7.5716,-1.6188 0.7137,1.1549 -17.1338,10.1995 -20.1266,10.1995 -0.6296,0 -6.4266,2.4041 -12.8823,5.3425 -8.1482,3.7087 -12.6834,6.9396 -14.8304,10.565 -3.569,6.0267 -10.8375,8.7151 -39.6827,14.6773 -16.4979,3.41 -18.8841,4.3868 -24.8432,10.1699 -7.5226,7.3005 -12.2027,8.836 -37.9168,12.4402 -21.5459,3.02 -39.292,3.2655 -44.0788,0.6099 z"
     id="path7976"
     inkscape:connector-curvature="0" />
  <path
     style="fill:url(#linearGradient8042);fill-opacity:1"
     d="m 1488.5438,1110.264 c 2.3243,-1.8237 9.5019,-6.48 15.9502,-10.3474 6.4483,-3.8674 18.6673,-12.1596 27.1533,-18.427 8.486,-6.2674 17.3717,-12.4448 19.7461,-13.7277 10.0889,-5.4509 27.5934,-21.4526 35.0466,-32.0378 2.2435,-3.1861 8.1633,-9.2161 13.1552,-13.3998 4.9919,-4.1837 12.9083,-12.1709 17.592,-17.7492 4.6838,-5.5783 11.832,-13.94582 15.8851,-18.59442 4.053,-4.6486 10.6557,-12.91489 14.6725,-18.36953 4.8631,-6.60369 7.4861,-9.00422 7.85,-7.1842 0.3006,1.50333 1.5876,2.73333 2.8599,2.73333 2.8383,0 27.9978,-33.39931 38.1587,-50.65574 11.5389,-19.5969 10.2179,-9.93208 -2.0268,14.82807 -10.389,21.00787 -13.8689,26.24843 -31.0681,46.78815 -17.0122,20.31634 -20.6489,23.67594 -23.272,21.49894 -1.9722,-1.6368 -5.621,1.3096 -20.0064,16.1548 -9.6768,9.9861 -21.7216,23.4814 -26.7661,29.9894 -14.5185,18.7308 -18.5127,22.4828 -36.4689,34.2577 -9.2972,6.0968 -21.3317,14.0046 -26.7434,17.573 -5.4116,3.5685 -10.2674,6.4881 -10.7906,6.4881 -0.5231,0 -5.9843,2.5454 -12.1358,5.6565 -6.1516,3.1111 -13.847,6.1479 -17.1011,6.7485 l -5.9164,1.092 4.226,-3.3157 z"
     id="path7978"
     inkscape:connector-curvature="0" />
  <path
     style="fill:url(#linearGradient8050);fill-opacity:1"
     d="m 1611.9431,1053.3578 c 0,-0.5962 2.2451,-3.4487 4.9893,-6.339 35.5036,-37.3938 41.5474,-43.2684 42.0432,-40.8659 0.8668,4.2001 3.2477,3.1876 12.2039,-5.1899 18.1297,-16.9583 4.5013,1.3886 -22.2313,29.9281 -12.7721,13.6354 -17.7519,17.8933 -20.1833,17.2575 -1.7753,-0.4642 -5.9496,0.7618 -9.2762,2.7246 -6.4863,3.827 -7.5456,4.1758 -7.5456,2.4846 z"
     id="path7980"
     inkscape:connector-curvature="0" />
  <path
     style="fill:url(#linearGradient8010);fill-opacity:1"
     d="m 1062.563,1182.3305 c -6.0432,-2.1402 -19.3551,-8.1626 -29.582,-13.383 -10.2269,-5.2204 -22.7872,-11.047 -27.9117,-12.9479 -20.6505,-7.6603 -72.91594,-40.9866 -96.11304,-61.2852 -7.7818,-6.8095 -16.7317,-13.8522 -19.8887,-15.6505 -7.861,-4.478 -41.0026,-38.7552 -57.0384,-58.9931 -7.2438,-9.142 -16.7804,-20.6079 -21.1925,-25.4798 -4.412,-4.87195 -10.5449,-12.6057 -13.6286,-17.18618 -3.0838,-4.58047 -7.308,-10.22984 -9.3872,-12.55414 -9.595,-10.72579 -48.9095,-88.40617 -60.1922,-118.93184 -27.0799,-73.26557 -33.6425,-99.1944 -36.214,-143.08157 -1.7457,-29.79235 3.3404,-62.19445 10.1741,-64.81675 2.6902,-1.0324 16.899,-30.1144 18.7106,-38.2963 0.7206,-3.254 1.6001,-5.0841 1.9547,-4.0668 0.3545,1.0172 -1.7032,15.0898 -4.5727,31.2724 -8.7883,49.561 -8.5515,77.53149 1.0418,123.06853 5.1699,24.5402 7.351,31.3741 9.3691,29.356 0.945,-0.94503 0.078,-13.10804 -2.2131,-31.03889 -3.4539,-27.03339 -3.5694,-30.53625 -1.3889,-42.12945 1.3558,-7.2089 2.605,-10.82788 2.9057,-8.41855 3.0544,24.46731 12.8403,90.97115 15.7949,107.34041 1.0068,5.57832 4.3882,15.8475 7.5141,22.8204 3.1259,6.9729 7.6295,19.40736 10.008,27.63214 4.6265,15.99834 14.2354,35.98784 17.0176,35.40178 0.9297,-0.19583 2.0748,-2.85821 2.5447,-5.9164 0.7991,-5.20102 1.6866,-3.97651 13.7351,18.95048 20.5204,39.04791 35.9017,65.02474 45.526,76.88687 13.4085,16.52626 18.31,14.54536 7.5006,-3.03131 l -11.8328,-19.24071 c -3.5376,-5.75236 -5.9164,-11.80391 -5.9164,-15.05122 0,-5.2982 -3.9362,-13.16088 -18.1164,-36.18788 -7.9247,-12.86875 -16.4282,-29.48878 -18.1599,-35.49335 -0.6703,-2.3243 -2.969,-8.79008 -5.1082,-14.3684 -2.1392,-5.57832 -4.462,-12.03813 -5.1619,-14.35515 -1.1458,-3.79327 -0.9916,-3.97969 1.5478,-1.87212 4.4198,3.66807 5.117,0.99548 2.0348,-7.79972 -17.9572,-51.24173 -24.5881,-78.08416 -25.8006,-104.44342 -0.556,-12.08636 -0.5613,-21.56776 -0.012,-21.06977 0.5494,0.49797 2.5635,11.14749 4.4757,23.6656 3.8088,24.9341 7.145,38.07484 11.9881,47.22009 5.9512,11.2377 5.9498,11.2368 10.7348,6.69597 4.9132,-4.6625 5.4072,-8.19462 2.0638,-14.75843 -1.2787,-2.51057 -4.0048,-11.77612 -6.0578,-20.59012 -3.0807,-13.22546 -3.5098,-18.39413 -2.4561,-29.582 1.2561,-13.33817 1.3008,-13.44082 2.7765,-6.37234 1.5189,7.27557 3.5654,9.15052 5.236,4.79705 0.5038,-1.31292 1.8535,-8.51077 2.9992,-15.99521 1.805,-11.79106 2.3797,-13.22158 4.3039,-10.71347 3.3257,4.3349 4.7628,0.98601 8.0371,-18.72951 2.6904,-16.2002 4.3902,-22.2811 4.3902,-15.7055 0,4.754 3.809,2.1368 6.094,-4.1872 1.1555,-3.1979 2.1587,-5.0101 2.2294,-4.0271 1.0662,14.8169 7.6101,58.32428 10.0284,66.67394 4.2408,14.64208 8.1418,23.6656 10.2309,23.6656 1.73,0 4.7919,-9.15815 5.6516,-16.904 0.258,-2.3243 1.8217,5.12031 3.475,16.54358 1.6533,11.42326 4.9117,27.39754 7.2408,35.4984 6.6945,23.28357 25.3734,68.79037 36.5751,89.10643 5.6388,10.22692 14.7586,27.40911 20.2662,38.18262 10.8055,21.1367 23.4032,38.73059 27.7322,38.73059 4.0617,0 1.9026,-6.20609 -7.9801,-22.93782 -4.7029,-7.96211 -11.5063,-20.7014 -15.1187,-28.30957 -12.971,-27.31852 -34.767,-103.66901 -36.2806,-127.08983 l -0.874,-13.5232 4.0833,8.20669 c 2.2459,4.51368 4.9164,9.03972 5.9346,10.05788 3.293,3.29307 2.1074,-8.83976 -2.5282,-25.87137 -3.9226,-14.41199 -7.7003,-46.16187 -5.2222,-43.89056 0.5432,0.49777 4.0808,10.29197 7.8616,21.7649 3.7807,11.47291 7.3353,21.6062 7.8991,22.51843 1.8756,3.03481 3.929,-2.74227 4.045,-11.38037 0.1129,-8.40861 0.1347,-8.3739 4.2451,6.7616 2.2724,8.36748 5.7604,21.67938 7.7512,29.582 5.7815,22.95094 11.003,40.35516 16.7355,55.78321 2.9364,7.90262 5.9904,16.51923 6.7867,19.14802 1.8993,6.27049 20.30864,40.9636 28.73754,54.1573 6.5696,10.28311 11.6494,20.22959 17.8139,34.88029 11.3453,26.96311 48.1552,65.82362 79.2088,83.62132 15.7533,9.0287 19.6,6.592 5.5865,-3.5386 -4.881,-3.5287 -16.9316,-14.0528 -26.779,-23.38702 -9.8475,-9.33423 -20.0568,-18.873 -22.6874,-21.1973 -8.2954,-7.32961 -22.7139,-31.28887 -27.1841,-45.17202 -2.3281,-7.23074 -6.4578,-16.95019 -9.177,-21.59879 -14.6784,-25.09341 -35.1332,-79.25924 -43.94084,-116.35828 -4.4917,-18.92011 -8.4975,-50.94045 -8.1686,-65.29548 0.1393,-6.07852 0.5446,-8.76981 0.9007,-5.98065 6.1498,48.17372 39.02424,154.99115 54.57744,177.33582 7.2116,10.36063 17.3598,20.70417 18.1372,18.48633 0.6193,-1.76675 -4.0443,-14.4039 -10.6638,-28.89583 -3.6913,-8.08143 -14.1728,-49.46373 -14.0218,-55.35991 0.1085,-4.24093 1.1989,-2.81055 6.6595,8.73663 3.5913,7.59431 8.8118,20.78785 11.6011,29.31897 4.175,12.76902 7.2533,18.3932 17.413,31.81383 6.7878,8.96647 13.766,18.59333 15.5071,21.39302 10.2524,16.48534 50.8848,51.12424 72.9023,62.14868 12.2959,6.15674 42.3815,15.47343 67.616,20.9389 18.6945,4.0489 25.6345,4.7411 46.486,4.6361 21.8081,-0.1097 28.2387,-0.8894 58.3188,-7.0708 20.2125,-4.1536 42.3053,-9.95798 54.938,-14.4337 21.9926,-7.79183 37.6308,-14.58063 38.5975,-16.75582 0.3099,-0.69729 2.1849,-1.2678 4.1666,-1.2678 4.9293,0 28.9817,-12.14455 38.7977,-19.58981 4.4162,-3.34956 8.0294,-5.28042 8.0294,-4.29081 0,0.99242 1.3266,1.3217 2.9582,0.73427 3.5593,-1.28142 27.9681,-18.0664 35.0557,-24.1064 16.4176,-13.99106 42.9711,-44.61713 60.0294,-69.23631 21.9673,-31.70425 31.196,-43.41 31.7904,-40.3235 0.7207,3.74252 -6.071,27.93759 -9.4801,33.77187 -1.9876,3.40172 -3.2296,4.12738 -4.8137,2.81267 -2.8869,-2.39587 -5.1126,-0.7302 -8.9039,6.6633 -1.7555,3.42337 -4.8599,8.12601 -6.8988,10.45031 -2.0389,2.3243 -7.2477,8.79008 -11.5751,14.3684 -21.5889,27.82948 -78.0478,77.75979 -107.0353,94.65827 -5.8898,3.43352 -12.9908,7.95434 -15.78,10.04627 -2.7891,2.0919 -6.9729,4.20361 -9.2972,4.69268 -2.3243,0.48908 -5.6456,1.48274 -7.3808,2.20812 -2.7512,1.15015 -2.921,0.88195 -1.3273,-2.09596 1.0052,-1.87817 1.4292,-3.81326 0.9422,-4.30021 -0.4869,-0.48694 -10.5391,2.88161 -22.3383,7.48563 -39.9594,15.59223 -69.9583,25.19533 -89.7905,28.74323 -12.592,2.2527 -16.9189,5.222 -10.1784,6.9847 5.121,1.3392 68.5393,-1.8755 77.6707,-3.9371 4.1838,-0.9446 10.6496,-2.141 14.3684,-2.6587 l 6.7616,-0.9412 -4.226,3.5301 c -7.977,6.6636 -29.2388,20.3982 -31.5773,20.3982 -4.9559,0 -14.6772,5.1336 -12.9646,6.8463 1.1364,1.1364 8.3595,-0.07 21.8519,-3.6508 11.085,-2.9416 23.9578,-6.1078 28.6064,-7.036 6.9681,-1.3913 28.7213,-8.3372 43.9504,-14.0336 4.9975,-1.8693 -11.9575,12.8991 -20.9759,18.2707 -11.75,6.9987 -18.3479,8.8411 -22.9127,6.398 -3.1755,-1.6994 -4.9684,-1.4449 -10.809,1.5348 -3.8511,1.9646 -7.002,4.3561 -7.002,5.3144 0,0.9583 2.8526,2.9856 6.339,4.5051 l 6.339,2.7628 -6.7616,1.2632 c -47.1689,8.812 -60.0092,12.3532 -60.0092,16.5497 0,4.6863 1.63,5.2163 8.2209,2.673 11.5915,-4.473 27.4307,-6.2514 43.3171,-4.8636 8.3781,0.7319 13.3311,1.5713 11.0068,1.8654 -9.7369,1.2321 -33.6463,9.8236 -35.7138,12.8333 -1.9599,2.8531 0.5695,7.9313 3.9505,7.9313 1.8373,0 10.6866,-1.4942 19.665,-3.3206 8.9784,-1.8263 22.9454,-4.0702 31.0378,-4.9864 19.414,-2.1981 50.769,-14.159 57.9667,-22.1125 1.6867,-1.8637 4.4701,-3.3885 6.1854,-3.3885 1.7154,0 3.1188,-0.575 3.1188,-1.2778 0,-1.1462 2.2983,-2.2763 14.5485,-7.1534 3.2901,-1.3099 9.1171,-14.5285 9.1171,-20.6823 0,-1.2523 3.2289,-4.9128 7.1753,-8.1344 3.9464,-3.2215 10.222,-8.5638 13.9458,-11.8718 3.7238,-3.308 8.7572,-7.4917 11.1853,-9.2972 2.4281,-1.8055 12.1717,-10.106 21.6525,-18.44561 13.0227,-11.4552 17.0333,-15.9447 16.4017,-18.36018 -0.5612,-2.14598 2.602,-7.60937 9.6198,-16.61514 5.7508,-7.3798 13.6709,-18.13472 17.6003,-23.89981 3.9293,-5.76509 8.6733,-12.38368 10.5423,-14.70798 1.8689,-2.32431 3.4083,-5.20361 3.4208,-6.39847 0.062,-5.98745 -14.8429,8.74398 -24.7015,24.41309 -9.2631,14.72278 -27.9838,34.87208 -43.0686,46.35514 -7.0845,5.39298 -15.9431,13.28422 -19.6858,17.53606 -5.0976,5.7913 -7.051,7.0889 -7.7864,5.1724 -1.5317,-3.9914 -4.1858,-3.0945 -12.4999,4.2239 -4.2377,3.7301 -8.0655,6.4214 -8.5063,5.9806 -1.0684,-1.0684 8.6907,-16.1525 16.7976,-25.96297 10.5877,-12.81256 8.9413,-14.47055 -8.5154,-8.57533 -7.5118,2.53678 -11.6218,3.12543 -14.1004,2.01947 -3.2053,-1.43027 -2.5274,-2.40216 8.0979,-11.6098 41.6628,-36.10398 81.5231,-80.25187 108.2781,-119.9249 4.3889,-6.50804 11.6853,-17.33546 16.2142,-24.06092 4.5289,-6.72546 9.776,-15.47328 11.6601,-19.4396 l 3.4257,-7.21148 -1.0054,7.34003 c -0.7579,5.53302 -0.4742,7.16296 1.1525,6.62073 1.1868,-0.39561 2.1778,-1.41659 2.2021,-2.26882 0.024,-0.85225 2.0566,-4.9726 4.516,-9.15634 8.0381,-13.67326 13.5536,-28.09405 19.7191,-51.55721 8.2307,-31.32201 10.453,-46.88323 7.0002,-49.01716 -2.1151,-1.3072 -3.8574,2.86506 -9.1749,21.97076 l -4.2343,15.2136 0.3621,-11.69177 c 0.4232,-13.67109 -2.1148,-16.27338 -6.1168,-6.27152 -3.8209,9.54951 -7.0755,11.07983 -5.508,2.58991 4.4042,-23.85381 5.9883,-69.49406 2.781,-80.12306 -0.98,-3.2479 -1.8,-9.3333 -1.8222,-13.5232 -0.022,-4.1899 -0.6853,-10.3933 -1.4736,-13.7853 -2.2806,-9.8127 0.453,-10.6849 4.9879,-1.5914 2.2717,4.5554 4.7015,7.9297 5.3995,7.4983 1.8464,-1.1412 1.5297,-26.6612 -0.4897,-39.464 -1.9982,-12.668 -9.7101,-37.1888 -11.6961,-37.1888 -0.7393,0 -3.8007,-7.0363 -6.803,-15.6362 -8.5563,-24.5089 -15.4712,-40.4786 -20.3115,-46.9086 -2.4496,-3.254 -4.955,-7.2627 -5.5677,-8.9082 -0.6127,-1.6455 -4.0691,-7.3506 -7.6811,-12.678 -5.8566,-8.6383 -13.7979,-23.3215 -13.7979,-25.5119 0,-0.4523 1.8453,0.9113 4.1008,3.0302 2.2555,2.1189 4.8465,3.3917 5.7577,2.8285 2.5746,-1.5912 0.3316,-7.7272 -6.7507,-18.4667 -7.3101,-11.085 -8.4859,-15.8593 -3.2104,-13.036 9.7697,5.2286 2.4408,-16.8753 -10.8,-32.5728 -6.6325,-7.863 -23.8181,-22.6012 -33.6171,-28.8296 -7.3627,-4.6799 -4.499,-4.8129 4.867,-0.2261 4.6092,2.2573 9.5213,4.1434 10.9159,4.1915 1.3945,0.048 7.8912,4.0655 14.437,8.9275 17.9644,13.3433 39.8996,38.0367 55.5279,62.5102 3.4138,5.3459 6.7989,9.7198 7.5223,9.7198 0.7235,0 2.6865,-1.0025 4.3622,-2.2279 2.9197,-2.1349 2.8979,-2.5361 -0.5221,-9.6147 -5.3225,-11.0162 -4.3584,-11.5657 3.3365,-1.9014 9.7524,12.2486 13.1596,10.9518 7.3351,-2.7917 -1.4649,-3.4566 -3.8277,-9.7077 -5.2507,-13.8915 -3.1126,-9.1514 -22.4151,-41.9535 -30.5876,-51.9798 -3.2207,-3.9513 -7.2856,-7.1842 -9.0331,-7.1842 -3.8113,0 -3.764,-0.8992 -0.5265,10.0023 1.4578,4.9091 2.3762,9.1999 2.0409,9.5352 -0.3352,0.3353 -4.7331,-5.635 -9.7731,-13.2673 -5.0399,-7.6324 -12.5284,-17.8845 -16.6411,-22.7825 -7.5855,-9.034 -25.1412,-23.3078 -31.7827,-25.8411 -2.0011,-0.7634 -13.1372,-5.999 -24.7468,-11.6349 -11.6096,-5.6358 -22.0354,-10.2469 -23.1686,-10.2469 -2.7535,0 -0.8006,7.6555 3.4899,13.6811 5.2956,7.4369 3.8762,7.0797 -7.1389,-1.7964 -10.5083,-8.4676 -28.437,-18.6463 -32.8436,-18.6463 -1.3144,0 -2.3899,1.5214 -2.3899,3.3808 0,4.1635 -0.3566,4.1686 -8.1171,0.1177 -3.4382,-1.7948 -11.4676,-5.7884 -17.8431,-8.8746 -8.4374,-4.0844 -13.4207,-7.9114 -18.3126,-14.0634 -3.6965,-4.6486 -10.2707,-12.2673 -14.6094,-16.9305 -13.9936,-15.0401 -15.4954,-17.994 -15.4954,-30.4783 0,-10.3907 4.5933,-31.4559 9.0137,-41.3373 3.0925,-6.913 26.7201,-44.1473 33.6172,-52.9768 3.5149,-4.4997 6.3907,-9.2026 6.3907,-10.4511 0,-3.0007 -0.3808,-2.8888 37.9977,-11.169996 l 16.8676,-3.6397 16.0952,3.8294 c 8.8523,2.1063 20.2789,5.743096 25.3923,8.081996 16.0095,7.3225 55.1969,29.0408 61.6429,34.1635 3.3898,2.6939 6.7358,5.1372 7.4356,5.4297 0.6998,0.2925 3.728,4.8575 6.7293,10.1445 6.4487,11.3597 16.8522,22.113 34.8561,36.0281 7.2174,5.5783 17.4093,14.0097 22.6488,18.7363 28.2975,25.5282 34.8079,31.7689 39.9725,38.3165 3.1159,3.9503 8.3734,10.2251 11.6833,13.944 11.4607,12.8768 41.0037,53.2795 46.6621,63.8145 1.8731,3.4875 6.7233,11.4746 10.7782,17.7492 8.0069,12.39 29.6245,56.3341 33.883,68.8772 1.4526,4.2785 4.1864,10.8083 6.0752,14.5106 1.8888,3.7024 3.2522,7.6582 3.0298,8.7908 -0.2225,1.1326 0.5572,5.102 1.7326,8.8209 8.8545,28.0151 14.0391,46.0948 16.9662,59.164 1.874,8.3675 4.5182,20.1581 5.8759,26.2012 3.2052,14.2668 7.7898,38.7253 9.6639,51.5572 1.8512,12.6746 1.8387,95.0713 -0.017,106.4952 -1.2149,7.48276 -1.4015,6.5135 -1.6274,-8.452 -0.1403,-9.2972 -1.0258,-24.1304 -1.9677,-32.9628 -0.9418,-8.8323 -2.0623,-21.3835 -2.4899,-27.8916 -1.2214,-18.5889 -10.2738,-72.7883 -13.8342,-82.8296 -1.3187,-3.7188 -3.9265,-13.2273 -5.7951,-21.13 -2.9054,-12.2867 -9.314,-28.8811 -19.2581,-49.8668 -1.3217,-2.7891 -3.9099,-8.4942 -5.7517,-12.678 -3.9549,-8.9841 -8.0954,-14.5647 -9.6516,-13.0085 -1.0502,1.0502 0.2573,4.9385 10.627,31.6029 4.7873,12.31 14.5548,42.4752 19.1574,59.164 10.2823,37.2835 17.2235,86.8053 21.7979,155.5168 1.3013,19.5464 -0.2632,64.54906 -2.9476,84.78863 -2.679,20.19903 -9.1188,44.57169 -10.6693,40.38016 -2.662,-7.19591 -5.8455,-3.31055 -12.0543,14.71186 -3.4431,9.99449 -5.7942,15.12908 -5.2245,11.4102 0.5697,-3.71888 1.3469,-10.94534 1.727,-16.0588 0.3802,-5.11346 1.2976,-14.83742 2.0388,-21.60879 1.031,-9.41935 0.8264,-12.74412 -0.871,-14.15278 -1.2194,-1.01266 -2.2177,-1.22233 -2.2177,-0.46594 0,0.7564 -1.0024,0.005 -2.2274,-1.67087 -2.0377,-2.78676 -2.4567,-2.81684 -4.9203,-0.35326 -1.4811,1.48107 -3.037,3.65729 -3.4576,4.83604 -0.4206,1.17875 -1.3727,1.5759 -2.1159,0.88255 -0.7432,-0.69337 -0.5139,-3.09842 0.5095,-5.34459 3.2657,-7.16732 6.4172,-37.89937 4.122,-40.19464 -2.8506,-2.85054 -3.8191,-1.23166 -6.4517,10.78357 -9.4131,42.96157 -14.8917,64.06026 -21.2469,81.82363 -7.1668,20.0318 -20.1227,45.09088 -21.3732,41.33958 -0.3474,-1.04245 0.161,-2.85059 1.1299,-4.01808 0.969,-1.16749 2.4973,-5.13549 3.3962,-8.81777 0.899,-3.68228 4.0602,-13.16083 7.0248,-21.06345 5.992,-15.97222 13.493,-42.48897 13.493,-47.69893 0,-2.30532 -0.8036,-3.06644 -2.5356,-2.40178 -1.3946,0.53515 -2.5274,0.8067 -2.5173,0.60346 0.01,-0.20325 1.1213,-4.00496 2.4695,-8.44823 1.3482,-4.44327 2.9663,-13.7616 3.5957,-20.7074 0.9677,-10.67868 0.7473,-12.62873 -1.4272,-12.62873 -3.1504,0 -3.4239,0.91429 -10.5475,35.25433 -5.3084,25.58987 -7.632,33.72715 -7.632,26.72702 0,-8.2949 -7.5813,2.54871 -11.9084,17.03277 -1.6254,5.44032 -2.6545,6.74742 -4.2621,5.41322 -1.547,-1.28393 -2.8452,-0.72261 -4.8072,2.0786 -1.4784,2.11063 -2.6879,4.5045 -2.6879,5.31967 0,3.23573 -23.772,49.94408 -30.2646,59.4652 -3.8039,5.57832 -6.918,10.99153 -6.9202,12.02933 -0.01,2.58472 -16.8061,20.59311 -16.8627,18.07504 -0.025,-1.10728 0.6063,-2.41597 1.4027,-2.90818 2.3418,-1.44728 29.3189,-44.81771 31.4877,-50.62185 2.359,-6.31317 6.6299,-15.83342 15.0773,-33.60871 6.1871,-13.01887 11.151,-25.72513 11.151,-28.54337 0,-0.81283 -1.1265,-1.47786 -2.5033,-1.47786 -2.0026,0 -2.29,-1.55597 -1.437,-7.77956 0.9257,-6.75327 0.6858,-7.70101 -1.8182,-7.1842 -1.6654,0.34374 -4.6976,4.88191 -7.1745,10.73776 -5.2586,12.4324 -15.119,37.89351 -18.6575,48.1764 -1.4396,4.18374 -3.8958,9.5085 -5.4582,11.8328 -1.5623,2.3243 -3.8049,6.50804 -4.9835,9.2972 -3.1297,7.40647 -19.9832,36.27388 -30.2283,51.77642 -4.8788,7.38235 -10.4112,16.24834 -12.2944,19.70222 -1.8831,3.45388 -5.765,9.91294 -8.6263,14.35351 -3.8993,6.05136 -4.7421,8.62832 -3.3649,10.28774 1.3899,1.67483 0.4022,3.89071 -4.0559,9.09898 -3.2413,3.78674 -5.8932,7.60572 -5.8932,8.48666 0,2.41172 -24.2564,30.534 -34.2981,39.7645 -19.7558,18.1596 -57.3316,45.3675 -59.5675,43.1315 -1.2586,-1.2586 25.8942,-23.8676 48.3267,-40.2395 14.8813,-10.8608 37.0869,-34.0465 37.0869,-38.72392 0,-5.86077 -12.8816,2.8682 -29.582,20.04572 -7.4378,7.6503 -15.4249,14.9396 -17.7492,16.1985 -2.3243,1.2589 -6.5247,4.4237 -9.3341,7.0329 -2.8094,2.6092 -11.1769,8.8751 -18.5944,13.9242 -7.4175,5.0492 -17.6701,12.4171 -22.7836,16.3732 -5.1134,3.9561 -21.468,13.3223 -36.3436,20.8138 -14.8755,7.4915 -27.807,14.2004 -28.7368,14.9086 -3.4568,2.6332 -39.8764,11.9119 -54.5447,13.8965 -41.7241,5.6451 -80.6131,11.9781 -81.9864,13.3515 -2.6505,2.6504 -0.052,4.7804 7.2576,5.9493 7.704,1.2319 7.701,3.4583 -0.01,4.9999 -5.3614,1.0723 -6.8974,5.128 -2.5708,6.7883 4.9872,1.9138 2.3122,3.7885 -13.1006,9.1817 -31.1828,10.9113 -65.1501,10.8062 -117.0929,-0.3626 -15.6663,-3.3686 -41.7475,-14.4471 -71.4015,-30.3293 -24.8314,-13.2992 -28.5114,-14.7213 -26.8429,-10.3735 2.5575,6.6649 -11.7725,0.2854 -36.1097,-16.0755 -21.587,-14.512 -28.9275,-19.0553 -36.1056,-22.3474 -8.1203,-3.7241 -9.5353,-3.7384 -9.5353,-0.096 0,3.1971 17.705,20.7701 20.926,20.7701 1.1132,0 8.841,5.9411 17.1728,13.2026 8.3318,7.2614 19.7128,16.1308 25.2911,19.7098 14.3736,9.2219 51.1091,27.942 54.8323,27.942 4.3966,0 47.037,20.5228 44.5588,21.4461 -1.1181,0.4166 -12.9087,-1.9099 -26.2012,-5.1701 -34.5812,-8.4814 -55.4407,-10.7673 -55.4407,-6.0754 0,5.735 28.3661,17.8638 46.6617,19.9516 l 13.3475,1.5232 -20.2848,0.1855 c -17.1715,0.157 -21.9711,-0.4118 -31.2724,-3.7059 z m 290.4186,-76.3288 c 10.374,-1.1439 41.258,-8.0523 48.084,-10.7558 5.3152,-2.1051 6.2813,-6.996 1.3821,-6.996 -1.7966,0 -12.1172,2.282 -22.9347,5.0712 -10.8174,2.7892 -22.0888,5.1177 -25.0476,5.1745 -7.5942,0.1457 -23.5616,5.4212 -24.4468,8.0769 -0.5663,1.6989 1,2.0112 6.6272,1.3214 4.0529,-0.4969 11.404,-1.3483 16.3358,-1.8922 z m -487.42244,-68.347 c 0.5349,-0.8655 0.3262,-1.973 -0.4637,-2.4612 -0.7899,-0.4882 -1.4362,0.2199 -1.4362,1.5736 0,2.8503 0.533,3.0993 1.8999,0.8876 z m -12.6058,-26.4178 c 0,-1.4494 -0.7731,-2.1575 -1.718,-1.5736 -0.9449,0.584 -1.2803,1.7699 -0.7454,2.6354 1.4491,2.3447 2.4634,1.9075 2.4634,-1.0618 z m -6.4768,-7.8984 c -1.2544,-1.2544 -1.4744,-0.5944 -0.7392,2.2173 0.5978,2.2858 1.364,3.052 1.786,1.786 0.4065,-1.2195 -0.065,-3.021 -1.0468,-4.0033 z m 724.49194,-83.70602 c 7.3951,-6.70843 24.3726,-27.05122 29.9788,-35.92101 2.6443,-4.18374 6.6529,-10.41469 8.9081,-13.84654 3.6975,-5.62677 3.9728,-9.81906 0.6449,-9.81906 -0.6839,0 -3.9122,3.61323 -7.174,8.0294 -20.403,27.62288 -30.5487,40.823 -35.1601,45.74514 -8.7894,9.38162 -6.4595,14.21391 2.8023,5.81207 z"
     id="path7982"
     inkscape:connector-curvature="0" />
</svg>
